<svg xmlns="http://www.w3.org/2000/svg" width="30px" height="30px" viewBox="0 0 16 16">
    <rect x="0" y="0" width="24" height="24" rx="3" fill="white" />

    <path fill="black" transform="scale(0.9) translate(1, 1)" fill-rule="evenodd" d="M2.5 5.5v-3h3v3h-3ZM1 2a1 1 0 0 1 1-1h4a1 1 0 0 1 1 1v4a1 1 0 0 1-1 1H2a1 1 0 0 1-1-1V2Zm8 .25a.75.75 0 0 1 .75-.75h4.5a.75.75 0 0 1 0 1.5h-4.5A.75.75 0 0 1 9 2.25ZM9.75 5a.75.75 0 0 0 0 1.5h4.5a.75.75 0 0 0 0-1.5h-4.5ZM2.5 10.5v3h3v-3h-3ZM2 9a1 1 0 0 0-1 1v4a1 1 0 0 0 1 1h4a1 1 0 0 0 1-1v-4a1 1 0 0 0-1-1H2Zm7.75.5a.75.75 0 0 0 0 1.5h4.5a.75.75 0 0 0 0-1.5h-4.5Zm0 3.5a.75.75 0 0 0 0 1.5h4.5a.75.75 0 0 0 0-1.5h-4.5Z" clip-rule="evenodd"/>
</svg>