<svg xmlns="http://www.w3.org/2000/svg" width="2em" height="2em" viewBox="0 0 26 26">
    <path fill="#778899" d="M12.906-.031a1 1 0 0 0-.125.031A1 1 0 0 0 12 1v1H3a3 3 0 0 0-3 3v13c0 1.656 1.344 3 3 3h9v.375l-5.438 2.719a1.006 1.006 0 0 0 .875 1.812L12 23.625V24a1 1 0 1 0 2 0v-.375l4.563 2.281a1.006 1.006 0 0 0 .875-1.812L14 21.375V21h9c1.656 0 3-1.344 3-3V5a3 3 0 0 0-3-3h-9V1a1 1 0 0 0-1.094-1.031zM2 5h22v13H2V5zm18.875 1a1 1 0 0 0-.594.281L17 9.563L14.719 7.28a1 1 0 0 0-1.594.219l-2.969 5.188l-1.219-3.063a1 1 0 0 0-1.656-.344l-3 3a1.016 1.016 0 1 0 1.439 1.44l1.906-1.906l1.438 3.562a1 1 0 0 0 1.812.125l3.344-5.844l2.062 2.063a1 1 0 0 0 1.438 0l4-4A1 1 0 0 0 20.875 6z"/>
</svg>
