<svg xmlns="http://www.w3.org/2000/svg" width="30px" height="30px" viewBox="0 0 16 16">
    <rect x="0" y="0" width="16" height="16" rx="3" fill="white" />
    <path fill="black" transform="scale(0.9) translate(1, 1)"
          d="M11 8a2.64 2.64 0 0 0-.53-1.59l1.33-1.32a2.22 2.22 0 0 0 .82.17a1.94 1.94 0 0 0 2-1.88a2 2 0 0 0-4 0a1.76 1.76 0 0 0 .24.88L9.53 5.59A3.14 3.14 0 0 0 8 5.19a3 3 0 0 0-2.93 2.19h-.69A2 2 0 0 0 2.5 6.13A1.94 1.94 0 0 0 .5 8a1.94 1.94 0 0 0 2 1.88a2 2 0 0 0 1.88-1.25h.69A3 3 0 0 0 8 10.82A2.91 2.91 0 0 0 11 8zm1.62-5.24a.69.69 0 0 1 .75.62a.76.76 0 0 1-1.5 0a.7.7 0 0 1 .75-.62zM2.5 8.63A.7.7 0 0 1 1.75 8a.7.7 0 0 1 .75-.62a.7.7 0 0 1 .75.62a.7.7 0 0 1-.75.63zm5.5.94A1.67 1.67 0 0 1 6.25 8A1.66 1.66 0 0 1 8 6.44A1.67 1.67 0 0 1 9.75 8A1.68 1.68 0 0 1 8 9.57z"/>
    <path fill="black" transform="scale(0.9) translate(1, 1)"
          d="M2.5 4.38a2 2 0 0 0 .82-.17L5.08 6A3.73 3.73 0 0 1 6 5.13L4.26 3.38a1.76 1.76 0 0 0 .24-.88a1.94 1.94 0 0 0-2-1.87a1.94 1.94 0 0 0-2 1.87a1.94 1.94 0 0 0 2 1.88zm0-2.5a.7.7 0 0 1 .75.62a.7.7 0 0 1-.75.63a.7.7 0 0 1-.75-.63a.7.7 0 0 1 .75-.62zm11 9.75a2 2 0 0 0-.82.17L10.92 10a3.73 3.73 0 0 1-.93.84l1.74 1.74a1.75 1.75 0 0 0-.23.88a2 2 0 0 0 4 0a1.94 1.94 0 0 0-2-1.83zm0 2.5a.7.7 0 0 1-.75-.63a.76.76 0 0 1 1.5 0a.7.7 0 0 1-.75.63z"/>
</svg>
