<svg xmlns="http://www.w3.org/2000/svg" width="30px" height="30px" viewBox="0 0 24 24">
    <rect x="0" y="0" width="24" height="24" rx="3" fill="white" />
    <g fill="none" stroke="black" stroke-linecap="round" stroke-linejoin="round" stroke-width="2">
        <path d="M18 6a4 4 0 0 0-4 4a7 7 0 0 0-7 7c0-5 4-5 4-10.5a4.5 4.5 0 1 0-9 0a2.5 2.5 0 0 0 5 0C7 10 3 11 3 17c0 2.8 2.2 5 5 5h10"/>
        <path d="M16 20c0-1.7 1.3-3 3-3h1a2 2 0 0 0 2-2v-2a4 4 0 0 0-4-4V4"/>
        <path d="M15.2 22a3 3 0 0 0-2.2-5m5-4h.01"/>
    </g>
</svg>
