<svg xmlns="http://www.w3.org/2000/svg" width="undefined" height="undefined" viewBox="0 0 1025 1024">
    <path fill="#CFD8DC" d="M928 129q-35 0-65.5 46.5T826 272q122 132 173 254.5t2 171.5q-45 45-122 71q-15-63-85-163.5t-172.5-203t-203-172T255 145q26-76 72-121q46-44 152.5-5.5T708 160q2-2 16.5-13.5t19-14.5t19-13.5t22.5-14t22.5-12t26-11.5t27-7.5T892 67t33-2q14 0 24.5 9.5t10 23.5t-9 22.5T928 129zM576 449q156 156 237 311q-36 49-80 93q-60 60-130.5 98.5t-132.5 54t-129 17.5t-114-4t-93-18t-61-17.5t-23-9.5q-4-8-9.5-22.5t-17.5-61t-18-93T1 684t17.5-129T73 422.5T171 292q45-44 93-80q156 81 312 237z"/>
</svg>
