<svg xmlns="http://www.w3.org/2000/svg" width="undefined" height="undefined" viewBox="0 0 48 48">
    <mask id="ipSSourceCode0">
        <g fill="none">
            <path stroke="#fff" stroke-linecap="round" stroke-linejoin="round" stroke-width="4" d="M23 40H7a3 3 0 0 1-3-3V11a3 3 0 0 1 3-3h34a3 3 0 0 1 3 3v14.882"/>
            <path fill="#fff" stroke="#fff" stroke-width="4" d="M4 11a3 3 0 0 1 3-3h34a3 3 0 0 1 3 3v9H4v-9Z"/>
            <path stroke="#fff" stroke-linecap="round" stroke-linejoin="round" stroke-width="4" d="m34 33l-4 4l4 4m6-8l4 4l-4 4"/>
            <circle r="2" fill="#000" transform="matrix(0 -1 -1 0 10 14)"/>
            <circle r="2" fill="#000" transform="matrix(0 -1 -1 0 16 14)"/>
        </g>
    </mask>
    <path fill="white" d="M0 0h48v48H0z" mask="url(#ipSSourceCode0)"/>
</svg>
