<svg xmlns="http://www.w3.org/2000/svg" width="30px" height="30px" viewBox="0 0 1025 1024">
    <path fill="white"
          d="M896.428 1024h-768q-53 0-90.5-37.5T.428 896V128q0-53 37.5-90.5t90.5-37.5h768q53 0 90.5 37.5t37.5 90.5v768q0 53-37.5 90.5t-90.5 37.5zm-244-552q-3 0-7-.5t-14-2.5t-18-5.5t-14.5-12t-6.5-19.5q0-13 7.5-23.5t16.5-17.5t16.5-25.5t7.5-45.5v-64q0-27-15-45.5t-33-18.5q-17 0-28.5 11.5t-11.5 28.5v20q0 21-13.5 42.5t-31 37.5t-40.5 38.5t-35 41.5q-7 9-20 22.5t-38 32.5t-62.5 32t-79.5 13q-2 0-3 1q-14 2-25.5 29.5t-11.5 49.5v160q0 19 11 29.5t29 10.5q20 0 80 20t80 20h320q16 0 28-12t12-28.5t-12-28t-28-11.5h40q17 0 28.5-12t11.5-28.5t-11.5-28t-28.5-11.5q17 0 28.5-12t11.5-28.5t-11.5-28t-28.5-11.5h40q17 0 28.5-12t11.5-28q0-31-53.5-55.5t-126.5-24.5z"/>
</svg>
