<?xml version="1.0" encoding="UTF-8"?>
<svg width="800" height="600" xmlns="http://www.w3.org/2000/svg">
  <defs>
    <marker id="arrowhead" markerWidth="10" markerHeight="7" refX="0" refY="3.5" orient="auto">
      <polygon points="0 0, 10 3.5, 0 7" fill="#666666" />
    </marker>
  </defs>
  
  <!-- Canvas Background -->
  <rect width="800" height="600" fill="#1e1e1e" />
  
  <!-- Title -->
  <text x="400" y="30" font-family='Inter, ui-sans-serif, system-ui, sans-serif' font-size="24" fill="#dfdfd6" text-anchor="middle" font-weight="bold">SSM Docker Architecture</text>
  
  <!-- SSM Server Box -->
  <rect x="50" y="70" width="300" height="470" rx="10" ry="10" fill="#1b1b1f" />
  <!-- Left Accent Border -->
  <rect x="50" y="70" width="4" height="470" fill="#3498db" />
  <text x="200" y="95" font-family='Inter, ui-sans-serif, system-ui, sans-serif' font-size="18" fill="#dfdfd6" text-anchor="middle" font-weight="bold">SSM Server</text>
  
  <!-- Clean Architecture Layers in SSM -->
  <rect x="70" y="110" width="260" height="100" rx="8" ry="8" fill="#1b1b1f" />
  <rect x="70" y="110" width="4" height="100" fill="#9b59b6" />
  <text x="200" y="130" font-family='Inter, ui-sans-serif, system-ui, sans-serif' font-size="16" fill="#dfdfd6" text-anchor="middle" font-weight="bold">Presentation Layer</text>
  <rect x="90" y="140" width="100" height="30" rx="8" ry="8" fill="#1b1b1f" />
  <rect x="90" y="140" width="4" height="30" fill="#9b59b6" />
  <text x="100" y="160" font-family='Inter, ui-sans-serif, system-ui, sans-serif' font-size="13" fill="#98989f" text-anchor="start">REST Controllers</text>
  <rect x="210" y="140" width="100" height="30" rx="8" ry="8" fill="#1b1b1f" />
  <rect x="210" y="140" width="4" height="30" fill="#9b59b6" />
  <text x="220" y="160" font-family='Inter, ui-sans-serif, system-ui, sans-serif' font-size="13" fill="#98989f" text-anchor="start">WebSocket Gateways</text>
  
  <rect x="70" y="220" width="260" height="100" rx="8" ry="8" fill="#1b1b1f" />
  <rect x="70" y="220" width="4" height="100" fill="#ff9800" />
  <text x="200" y="240" font-family='Inter, ui-sans-serif, system-ui, sans-serif' font-size="16" fill="#dfdfd6" text-anchor="middle" font-weight="bold">Application Layer</text>
  <rect x="90" y="250" width="100" height="30" rx="8" ry="8" fill="#1b1b1f" />
  <rect x="90" y="250" width="4" height="30" fill="#ff9800" />
  <text x="100" y="270" font-family='Inter, ui-sans-serif, system-ui, sans-serif' font-size="13" fill="#98989f" text-anchor="start">ContainerService</text>
  <rect x="210" y="250" width="100" height="30" rx="8" ry="8" fill="#1b1b1f" />
  <rect x="210" y="250" width="4" height="30" fill="#ff9800" />
  <text x="220" y="270" font-family='Inter, ui-sans-serif, system-ui, sans-serif' font-size="13" fill="#98989f" text-anchor="start">WatcherEngine</text>
  
  <!-- Components Box -->
  <rect x="70" y="330" width="260" height="180" rx="8" ry="8" fill="#1b1b1f" />
  <rect x="70" y="330" width="4" height="180" fill="#4caf50" />
  <text x="200" y="350" font-family='Inter, ui-sans-serif, system-ui, sans-serif' font-size="16" fill="#dfdfd6" text-anchor="middle" font-weight="bold">Docker Components</text>
  
  <!-- Component Modules -->
  <rect x="80" y="365" width="110" height="135" rx="8" ry="8" fill="#1b1b1f" />
  <rect x="80" y="365" width="4" height="135" fill="#4caf50" />
  <text x="90" y="385" font-family='Inter, ui-sans-serif, system-ui, sans-serif' font-size="12" fill="#98989f" text-anchor="start">Watcher Components</text>
  <rect x="90" y="395" width="90" height="25" rx="8" ry="8" fill="#1b1b1f" />
  <rect x="90" y="395" width="4" height="25" fill="#4caf50" />
  <text x="110" y="411" font-family='Inter, ui-sans-serif, system-ui, sans-serif' font-size="13" fill="#98989f" text-anchor="start">DockerWatcher</text>
  <rect x="90" y="425" width="90" height="25" rx="8" ry="8" fill="#1b1b1f" />
  <rect x="90" y="425" width="4" height="25" fill="#4caf50" />
  <text x="110" y="441" font-family='Inter, ui-sans-serif, system-ui, sans-serif' font-size="13" fill="#98989f" text-anchor="start">LogsComponent</text>
  <rect x="90" y="455" width="90" height="25" rx="8" ry="8" fill="#1b1b1f" />
  <rect x="90" y="455" width="4" height="25" fill="#4caf50" />
  <text x="110" y="471" font-family='Inter, ui-sans-serif, system-ui, sans-serif' font-size="13" fill="#98989f" text-anchor="start">StatsComponent</text>
  
  <rect x="210" y="365" width="110" height="135" rx="8" ry="8" fill="#1b1b1f" />
  <rect x="210" y="365" width="4" height="135" fill="#1abc9c" />
  <text x="230" y="385" font-family='Inter, ui-sans-serif, system-ui, sans-serif' font-size="12" fill="#98989f" text-anchor="start">Registry Components</text>
  <rect x="220" y="395" width="90" height="25" rx="8" ry="8" fill="#1b1b1f" />
  <rect x="220" y="395" width="4" height="25" fill="#1abc9c" />
  <text x="240" y="411" font-family='Inter, ui-sans-serif, system-ui, sans-serif' font-size="13" fill="#98989f" text-anchor="start">DockerHub</text>
  <rect x="220" y="425" width="90" height="25" rx="8" ry="8" fill="#1b1b1f" />
  <rect x="220" y="425" width="4" height="25" fill="#1abc9c" />
  <text x="240" y="441" font-family='Inter, ui-sans-serif, system-ui, sans-serif' font-size="13" fill="#98989f" text-anchor="start">ECR, GCR, ACR</text>
  <rect x="220" y="455" width="90" height="25" rx="8" ry="8" fill="#1b1b1f" />
  <rect x="220" y="455" width="4" height="25" fill="#1abc9c" />
  <text x="240" y="471" font-family='Inter, ui-sans-serif, system-ui, sans-serif' font-size="13" fill="#98989f" text-anchor="start">GitHub, GitLab</text>
  
  <!-- SSH Connection Box -->
  <rect x="400" y="200" width="185" height="180" rx="8" ry="8" fill="#1b1b1f" />
  <rect x="400" y="200" width="4" height="180" fill="#ff9800" />
  <text x="475" y="225" font-family='Inter, ui-sans-serif, system-ui, sans-serif' font-size="16" fill="#dfdfd6" text-anchor="middle" font-weight="bold">SSH Tunnel</text>
  
  <!-- SSH Components -->
  <rect x="420" y="240" width="110" height="30" rx="8" ry="8" fill="#1b1b1f" />
  <rect x="420" y="240" width="4" height="30" fill="#ff9800" />
  <text x="440" y="260" font-family='Inter, ui-sans-serif, system-ui, sans-serif' font-size="13" fill="#98989f" text-anchor="start">SsmSshAgent</text>
  <rect x="420" y="280" width="110" height="30" rx="8" ry="8" fill="#1b1b1f" />
  <rect x="420" y="280" width="4" height="30" fill="#ff9800" />
  <text x="440" y="300" font-family='Inter, ui-sans-serif, system-ui, sans-serif' font-size="13" fill="#98989f" text-anchor="start">CredentialsAdapter</text>
  <rect x="420" y="320" width="110" height="30" rx="8" ry="8" fill="#1b1b1f" />
  <rect x="420" y="320" width="4" height="30" fill="#ff9800" />
  <text x="440" y="340" font-family='Inter, ui-sans-serif, system-ui, sans-serif' font-size="13" fill="#98989f" text-anchor="start">docker system dial-stdio</text>
  
  <!-- Remote Server Box -->
  <rect x="600" y="70" width="180" height="470" rx="10" ry="10" fill="#1b1b1f" />
  <rect x="600" y="70" width="4" height="470" fill="#4caf50" />
  <text x="675" y="95" font-family='Inter, ui-sans-serif, system-ui, sans-serif' font-size="18" fill="#dfdfd6" text-anchor="middle" font-weight="bold">Remote Server</text>
  
  <!-- Docker Engine -->
  <rect x="625" y="120" width="100" height="100" rx="8" ry="8" fill="#1b1b1f" />
  <rect x="625" y="120" width="4" height="100" fill="#4caf50" />
  <text x="675" y="150" font-family='Inter, ui-sans-serif, system-ui, sans-serif' font-size="16" fill="#dfdfd6" text-anchor="middle" font-weight="bold">Docker</text>
  <text x="675" y="170" font-family='Inter, ui-sans-serif, system-ui, sans-serif' font-size="16" fill="#dfdfd6" text-anchor="middle" font-weight="bold">Engine</text>
  <text x="675" y="190" font-family='Inter, ui-sans-serif, system-ui, sans-serif' font-size="13" fill="#98989f" text-anchor="middle">docker.sock</text>
  
  <!-- Docker Resources -->
  <rect x="625" y="240" width="100" height="40" rx="8" ry="8" fill="#1b1b1f" />
  <rect x="625" y="240" width="4" height="40" fill="#4caf50" />
  <text x="645" y="265" font-family='Inter, ui-sans-serif, system-ui, sans-serif' font-size="13" fill="#98989f" text-anchor="start">Containers</text>
  <rect x="625" y="290" width="100" height="40" rx="8" ry="8" fill="#1b1b1f" />
  <rect x="625" y="290" width="4" height="40" fill="#4caf50" />
  <text x="645" y="315" font-family='Inter, ui-sans-serif, system-ui, sans-serif' font-size="13" fill="#98989f" text-anchor="start">Images</text>
  <rect x="625" y="340" width="100" height="40" rx="8" ry="8" fill="#1b1b1f" />
  <rect x="625" y="340" width="4" height="40" fill="#4caf50" />
  <text x="645" y="365" font-family='Inter, ui-sans-serif, system-ui, sans-serif' font-size="13" fill="#98989f" text-anchor="start">Volumes</text>
  <rect x="625" y="390" width="100" height="40" rx="8" ry="8" fill="#1b1b1f" />
  <rect x="625" y="390" width="4" height="40" fill="#4caf50" />
  <text x="645" y="415" font-family='Inter, ui-sans-serif, system-ui, sans-serif' font-size="13" fill="#98989f" text-anchor="start">Networks</text>
  
  <!-- Remote Registry Box -->
  <rect x="600" y="450" width="150" height="90" rx="8" ry="8" fill="#1b1b1f" />
  <rect x="600" y="450" width="4" height="90" fill="#ff9800" />
  <text x="685" y="475" font-family='Inter, ui-sans-serif, system-ui, sans-serif' font-size="16" fill="#dfdfd6" text-anchor="middle" font-weight="bold">Container Registries</text>
  <rect x="610" y="485" width="130" height="45" rx="8" ry="8" fill="#1b1b1f" />
  <rect x="610" y="485" width="4" height="45" fill="#ff9800" />
  <text x="630" y="500" font-family='Inter, ui-sans-serif, system-ui, sans-serif' font-size="13" fill="#98989f" text-anchor="start">Docker Hub, ECR, GCR</text>
  <text x="630" y="515" font-family='Inter, ui-sans-serif, system-ui, sans-serif' font-size="13" fill="#98989f" text-anchor="start">GHCR, GitLab, Quay.io</text>
  
  <!-- Connecting Lines -->
  <line x1="350" y1="290" x2="400" y2="290" stroke="#666666" stroke-width="2" marker-end="url(#arrowhead)" />
  <line x1="550" y1="290" x2="600" y2="170" stroke="#666666" stroke-width="2" marker-end="url(#arrowhead)" />
  <line x1="675" y1="220" x2="675" y2="240" stroke="#666666" stroke-width="2" marker-end="url(#arrowhead)" />
  <path d="M 675 450 L 675 435 L 720 435 L 720 220" stroke="#666666" stroke-width="2" stroke-dasharray="4,4" fill="none" marker-end="url(#arrowhead)" />
  <path d="M 265 500 L 265 530 L 600 530" stroke="#666666" stroke-width="2" stroke-dasharray="4,4" fill="none" marker-end="url(#arrowhead)" />
  
  <!-- Legend -->
  <rect x="50" y="550" width="700" height="40" rx="8" ry="8" fill="#1b1b1f" />
  <rect x="50" y="550" width="4" height="40" fill="#3498db" />
  <text x="400" y="575" font-family='Inter, ui-sans-serif, system-ui, sans-serif' font-size="13" fill="#98989f" text-anchor="middle">
    <tspan x="150" dy="0">— Direct Communication</tspan>
    <tspan x="350" dy="0">- - - Registry Communication</tspan>
    <tspan x="570" dy="0">🔒 Secure SSH Tunnel</tspan>
  </text>

  <!-- SSH Lock symbol on tunnel -->
  <text x="475" y="200" font-family='Inter, ui-sans-serif, system-ui, sans-serif' font-size="20" fill="#ff9800" text-anchor="middle">🔒</text>
</svg>