<svg xmlns="http://www.w3.org/2000/svg" width="2em" height="2em" viewBox="0 0 12 12">
    <path fill="#FF69B4" fill-rule="evenodd" d="M5.095 2.903a.525.525 0 0 1 .472-.278l1.05.016a.525.525 0 0 1 .462.292l.42.844l.742-.063a.525.525 0 0 1 .486.239l.53.822a.525.525 0 0 1-.015.59l-.39.546l.415.548c.129.17.142.402.032.586l-.5.838a.525.525 0 0 1-.482.255l-.785-.048l-.483.989a.525.525 0 0 1-.472.294H5.495a.525.525 0 0 1-.471-.294L4.57 8.15l-.84.076a.525.525 0 0 1-.493-.246l-.531-.855a.525.525 0 0 1 .03-.597l.48-.625l-.386-.539a.525.525 0 0 1-.014-.59l.53-.822a.525.525 0 0 1 .485-.239l.797.068zm.598.474l-.472.888a.525.525 0 0 1-.508.277l-.81-.069l-.374.58l.394.55a.525.525 0 0 1-.01.625l-.488.634l.376.606l.856-.078a.525.525 0 0 1 .52.292l.459.941h.8l.488-.997a.525.525 0 0 1 .503-.293l.798.048l.352-.59l-.424-.56a.525.525 0 0 1-.008-.622l.399-.556l-.374-.58l-.76.064a.525.525 0 0 1-.515-.29l-.427-.858z" clip-rule="evenodd"/>
    <path fill="#FF69B4" d="M10.282 7.4a4.5 4.5 0 0 1-8.666-.376l.851-.168L.847 5.18l-.848 2.167l.897-.176a5.25 5.25 0 0 0 10.125.461zm.836-2.54A5.25 5.25 0 0 0 .993 4.4l.713.232a4.5 4.5 0 0 1 8.666.375l-.851.169l1.62 1.672l.858-2.164z"/>
    <path fill="#FF69B4" fill-rule="evenodd" d="M6 5.625a.375.375 0 1 0 0 .75a.375.375 0 0 0 0-.75M4.875 6a1.125 1.125 0 1 1 2.25 0a1.125 1.125 0 0 1-2.25 0" clip-rule="evenodd"/>
</svg>
