<svg xmlns="http://www.w3.org/2000/svg" width="1.8em" height="1.8em" viewBox="0 0 32 32">
    <path fill="#FF5C5C" d="M2.909 26.182h1.939v4.848H2.909z" class="ouiIcon__fillSecondary"/>
    <path fill="#FF5C5C" d="M4.848 16.62V0H2.91v16.62a3.879 3.879 0 1 0 1.94 0m-.97 5.683a1.94 1.94 0 1 1 0-3.879a1.94 1.94 0 0 1 0 3.879"/>
    <path fill="#FF5C5C" d="M14.545 16.485h1.939V31.03h-1.939z" class="ouiIcon__fillSecondary"/>
    <path fill="#FF5C5C" d="M16.485 6.924V0h-1.94v6.924a3.879 3.879 0 1 0 1.94 0m-.97 5.682a1.94 1.94 0 1 1 0-3.879a1.94 1.94 0 0 1 0 3.88"/>
    <path fill="#FF5C5C" d="M26.182 26.182h1.939v4.848h-1.939z" class="ouiIcon__fillSecondary"/>
    <path fill="#FF5C5C" d="M28.121 16.62V0h-1.94v16.62a3.879 3.879 0 1 0 1.94 0m-.97 5.683a1.94 1.94 0 1 1 0-3.879a1.94 1.94 0 0 1 0 3.879"/>
</svg>
