<svg xmlns="http://www.w3.org/2000/svg" width="2em" height="2em" viewBox="0 0 24 24">
    <g fill="#66CDAA">
        <path d="M9.608 1.517c.77-.175 1.57-.267 2.392-.267c5.937 0 10.75 4.813 10.75 10.75S17.937 22.75 12 22.75c-.822 0-1.622-.092-2.392-.267a.75.75 0 1 1 .332-1.463a9.25 9.25 0 1 0 0-18.04a.75.75 0 1 1-.332-1.463ZM7.314 3.132a.75.75 0 0 1-.235 1.034A9.303 9.303 0 0 0 4.166 7.08a.75.75 0 0 1-1.27-.8A10.803 10.803 0 0 1 6.28 2.897a.75.75 0 0 1 1.035.235ZM2.98 9.94a.75.75 0 1 0-1.463-.332c-.175.77-.267 1.57-.267 2.392c0 .822.092 1.622.267 2.393a.75.75 0 0 0 1.463-.333A9.283 9.283 0 0 1 2.75 12c0-.709.08-1.398.23-2.06Zm.152 6.746a.75.75 0 0 1 1.034.235a9.302 9.302 0 0 0 2.913 2.913a.75.75 0 0 1-.8 1.27a10.804 10.804 0 0 1-3.382-3.383a.75.75 0 0 1 .235-1.035Z"/>
        <path d="M15.414 10.941c.781.462.781 1.656 0 2.118l-4.72 2.787C9.934 16.294 9 15.71 9 14.786V9.214c0-.924.934-1.507 1.694-1.059l4.72 2.787Z"/>
    </g>
</svg>
