<svg xmlns="http://www.w3.org/2000/svg" width="30px" height="30px" viewBox="0 0 14 14">
    <rect x="0" y="0" width="14" height="14" rx="3" fill="white" />
    <path fill="currentColor" fill-rule="evenodd" transform="scale(0.9) translate(1, 1)"
          d="M2.56 1.954C2.56.895 3.445.092 4.47.092s1.912.803 1.912 1.862v.462c0 1.059-.887 1.862-1.911 1.862c-1.025 0-1.912-.803-1.912-1.862zm1.91-.362c-.258 0-.41.192-.41.362v.462c0 .17.152.362.41.362c.259 0 .412-.193.412-.362v-.462c0-.17-.153-.362-.411-.362ZM1.595.842a.75.75 0 1 0-1.5 0v2.703a.75.75 0 0 0 1.5 0zm0 4.792a.75.75 0 1 0-1.5 0v2.703a.75.75 0 1 0 1.5 0zm1.715-.75a.75.75 0 0 1 .75.75v2.703a.75.75 0 1 1-1.5 0V5.634a.75.75 0 0 1 .75-.75m-1.715 5.503a.75.75 0 1 0-1.5 0v2.703a.75.75 0 0 0 1.5 0zM8.097.092a.75.75 0 0 1 .75.75v2.703a.75.75 0 1 1-1.5 0V.842a.75.75 0 0 1 .75-.75m3.176.75a.75.75 0 1 0-1.5 0v2.703a.75.75 0 1 0 1.5 0zM4.47 9.654c-1.025 0-1.912.803-1.912 1.862v.462c0 1.059.887 1.862 1.912 1.862c1.024 0 1.911-.803 1.911-1.862v-.462c0-1.059-.887-1.862-1.911-1.862m-.412 1.862c0-.17.153-.362.412-.362c.258 0 .411.193.411.362v.462c0 .17-.153.362-.411.362c-.259 0-.412-.192-.412-.362zm.965-4.772a1.91 1.91 0 0 1 1.911-1.91a.75.75 0 0 1 0 1.5a.411.411 0 0 0-.41.41v.483a.75.75 0 1 1-1.5 0zM10.5 7.75c-.69 0-1.25.56-1.25 1.25v.5h2.5V9c0-.69-.56-1.25-1.25-1.25M7.75 9v.531A1 1 0 0 0 7 10.5V13a1 1 0 0 0 1 1h5a1 1 0 0 0 1-1v-2.5a1 1 0 0 0-.75-.969V9a2.75 2.75 0 1 0-5.5 0"
          clip-rule="evenodd"/>
</svg>
