<?xml version="1.0" encoding="UTF-8"?>
<svg xmlns="http://www.w3.org/2000/svg" xmlns:xlink="http://www.w3.org/1999/xlink" width="800" height="750" viewBox="0 0 800 750">
  <defs>
    <style>
      .connection { 
        stroke: #666666;
        stroke-width: 1.5px;
        stroke-dasharray: 5,5; 
      }
      text { 
        font-family: Inter, ui-sans-serif, system-ui, sans-serif, "Apple Color Emoji", "Segoe UI Emoji", "Segoe UI Symbol", "Noto Color Emoji";
      }
      .title-text {
        font-family: Inter, ui-sans-serif, system-ui, sans-serif, "Apple Color Emoji", "Segoe UI Emoji", "Segoe UI Symbol", "Noto Color Emoji";
        font-size: 16px;
        font-weight: bold;
        text-anchor: middle;
        fill: #dfdfd6;
      }
      .node-title {
        font-family: Inter, ui-sans-serif, system-ui, sans-serif, "Apple Color Emoji", "Segoe UI Emoji", "Segoe UI Symbol", "Noto Color Emoji";
        font-size: 16px;
        font-weight: bold;
        fill: #dfdfd6;
      }
      .subtext {
        font-family: Inter, ui-sans-serif, system-ui, sans-serif, "Apple Color Emoji", "Segoe UI Emoji", "Segoe UI Symbol", "Noto Color Emoji";
        font-size: 13px;
        font-weight: 400;
        fill: #98989f;
      }
      .api-path {
        font-family: monospace;
        font-size: 13px;
        fill: #98989f;
      }
    </style>
  </defs>

  <!-- Overall Background -->
  <rect x="0" y="0" width="800" height="750" rx="10" ry="10" fill="#1e1e1e" />

  <!-- Title -->
  <text x="400" y="40" class="title-text">Squirrel Servers Manager Plugin Architecture</text>

  <!-- Server-side Components -->
  <rect x="50" y="70" width="300" height="340" rx="8" ry="8" fill="#1b1b1f" />
  <rect x="50" y="70" width="4" height="340" fill="#3498db" rx="0" ry="0"/>
  <text x="70" y="95" class="node-title">SSM Server</text>
  <text x="70" y="115" class="subtext">NestJS Application</text>

  <rect x="70" y="130" width="260" height="90" rx="8" ry="8" fill="#1b1b1f" />
  <text x="85" y="150" class="node-title" style="font-size: 14px;">Core Services</text>
  <text x="85" y="170" class="subtext">DevicesService</text>
  <text x="85" y="190" class="subtext">ContainersService</text>
  <text x="85" y="210" class="subtext">PlaybooksService</text>

  <rect x="70" y="230" width="260" height="160" rx="8" ry="8" fill="#1b1b1f" />
  <text x="85" y="250" class="node-title" style="font-size: 14px;">Plugin System</text>
  
  <rect x="90" y="270" width="220" height="50" rx="8" ry="8" fill="#1b1b1f" />
  <text x="105" y="290" class="node-title" style="font-size: 13px;">PluginSystem</text>
  <text x="105" y="310" class="subtext">Scans, loads and initializes plugins</text>
  
  <rect x="90" y="330" width="220" height="50" rx="8" ry="8" fill="#1b1b1f" />
  <text x="105" y="350" class="node-title" style="font-size: 13px;">Plugin Routes Registry</text>
  <text x="105" y="370" class="subtext">Mounts plugin routes at /plugins/{id}</text>

  <!-- Client-side Components -->
  <rect x="450" y="70" width="300" height="340" rx="8" ry="8" fill="#1b1b1f" />
  <rect x="450" y="70" width="4" height="340" fill="#ff9800" rx="0" ry="0"/>
  <text x="470" y="95" class="node-title">SSM Client</text>
  <text x="470" y="115" class="subtext">React Application</text>

  <rect x="470" y="130" width="260" height="90" rx="8" ry="8" fill="#1b1b1f" />
  <text x="485" y="150" class="node-title" style="font-size: 14px;">Core UI Components</text>
  <text x="485" y="170" class="subtext">DevicesPage</text>
  <text x="485" y="190" class="subtext">ContainersPage</text>
  <text x="485" y="210" class="subtext">PlaybooksPage</text>

  <rect x="470" y="230" width="260" height="160" rx="8" ry="8" fill="#1b1b1f" />
  <text x="485" y="250" class="node-title" style="font-size: 14px;">Plugin UI System</text>
  
  <rect x="490" y="270" width="220" height="50" rx="8" ry="8" fill="#1b1b1f" />
  <text x="505" y="290" class="node-title" style="font-size: 13px;">PluginLoader</text>
  <text x="505" y="310" class="subtext">Loads remote modules</text>
  
  <rect x="490" y="330" width="220" height="50" rx="8" ry="8" fill="#1b1b1f" />
  <text x="505" y="350" class="node-title" style="font-size: 13px;">PluginRegistry</text>
  <text x="505" y="370" class="subtext">Manages UI components and routes</text>

  <!-- Server MongoDB -->
  <rect x="120" y="435" width="160" height="40" rx="8" ry="8" fill="#1b1b1f" />
  <rect x="120" y="435" width="4" height="40" fill="#1abc9c" rx="0" ry="0"/>
  <text x="170" y="455" text-anchor="middle" class="node-title" style="font-size: 14px;">MongoDB</text>

  <!-- Plugin Container (.tar.gz) -->
  <rect x="300" y="480" width="200" height="40" rx="8" ry="8" fill="#1b1b1f" />
  <rect x="300" y="480" width="4" height="40" fill="#9b59b6" rx="0" ry="0"/>
  <text x="400" y="505" text-anchor="middle" class="node-title" style="font-size: 14px;">Plugin Container (.tar.gz)</text>

  <!-- Server-side Plugin -->
  <rect x="50" y="540" width="220" height="120" rx="8" ry="8" fill="#1b1b1f" />
  <rect x="50" y="540" width="4" height="120" fill="#4caf50" rx="0" ry="0"/>
  <text x="70" y="560" class="node-title">Server-side Plugin</text>
  <text x="70" y="580" class="subtext">NestJS/Express Compatible</text>
  
  <rect x="70" y="595" width="180" height="25" rx="8" ry="8" fill="#1b1b1f" />
  <text x="85" y="612" class="node-title" style="font-size: 13px;">Plugin.register()</text>
  
  <rect x="70" y="625" width="180" height="25" rx="8" ry="8" fill="#1b1b1f" />
  <text x="85" y="642" class="node-title" style="font-size: 13px;">Plugin.registerRoutes()</text>
  
  <!-- Client-side Plugin -->
  <rect x="530" y="540" width="220" height="120" rx="8" ry="8" fill="#1b1b1f" />
  <rect x="530" y="540" width="4" height="120" fill="#4caf50" rx="0" ry="0"/>
  <text x="550" y="560" class="node-title">Client-side Plugin</text>
  <text x="550" y="580" class="subtext">React (Module Federation)</text>
  
  <rect x="550" y="595" width="180" height="25" rx="8" ry="8" fill="#1b1b1f" />
  <text x="565" y="612" class="node-title" style="font-size: 13px;">MyPluginComponent</text>
  
  <rect x="550" y="625" width="180" height="25" rx="8" ry="8" fill="#1b1b1f" />
  <text x="565" y="642" class="node-title" style="font-size: 13px;">remoteEntry.js</text>
  
  <!-- Plugin Database (Optional) -->
  <rect x="300" y="670" width="200" height="40" rx="8" ry="8" fill="#1b1b1f" />
  <rect x="300" y="670" width="4" height="40" fill="#1abc9c" rx="0" ry="0"/>
  <text x="400" y="695" text-anchor="middle" class="node-title" style="font-size: 14px;">Plugin Database (Optional)</text>

  <!-- Connections -->
  <line x1="350" y1="240" x2="450" y2="240" class="connection" />
  <text x="400" y="230" text-anchor="middle" class="api-path" style="font-size: 12px;">REST API</text>
  
  <line x1="200" y1="410" x2="200" y2="435" class="connection" />
  
  <line x1="160" y1="540" x2="300" y2="500" class="connection" />
  <line x1="640" y1="540" x2="500" y2="500" class="connection" />
  <line x1="400" y1="520" x2="400" y2="670" class="connection" />

  <!-- Text Labels at bottom -->
  <text x="400" y="735" text-anchor="middle" class="api-path" style="font-size: 12px;">Isolated Database Per Plugin</text>
</svg>