<?xml version="1.0" standalone="no"?>
<!DOCTYPE svg PUBLIC "-//W3C//DTD SVG 20010904//EN"
 "http://www.w3.org/TR/2001/REC-SVG-20010904/DTD/svg10.dtd">
<svg version="1.0" xmlns="http://www.w3.org/2000/svg"
 width="250.000000pt" height="250.000000pt" viewBox="0 0 250.000000 250.000000"
 preserveAspectRatio="xMidYMid meet">
<metadata>
Created by potrace 1.14, written by Peter Selinger 2001-2017
</metadata>
<g transform="translate(0.000000,250.000000) scale(0.100000,-0.100000)"
fill="#000000" stroke="none">
<path d="M422 2452 c-59 -9 -120 -113 -146 -252 -13 -70 -13 -234 -1 -340 13
-104 11 -128 -15 -195 -14 -35 -50 -201 -50 -230 0 -40 -45 -114 -85 -141 -91
-61 -127 -170 -86 -260 14 -31 41 -57 118 -112 55 -40 104 -72 108 -72 5 0 16
-6 24 -14 24 -20 139 -81 194 -101 26 -10 47 -21 47 -25 0 -4 -16 -24 -36 -45
-20 -21 -57 -66 -83 -100 l-46 -61 -25 23 c-33 32 -105 52 -148 42 -38 -8 -77
-40 -97 -80 -23 -43 -13 -145 21 -213 30 -63 96 -141 107 -129 4 3 7 1 7 -5 0
-7 9 -12 21 -12 16 0 19 -4 14 -22 -6 -17 -4 -20 9 -15 9 4 20 -1 25 -11 6 -9
11 -12 11 -5 0 13 17 12 40 -2 12 -7 13 -6 3 7 -7 8 -10 18 -6 21 9 9 23 9 22
-1 -3 -18 2 -32 12 -32 6 0 7 5 2 13 -12 19 -14 45 -3 52 9 5 15 -16 11 -38
-1 -5 4 -5 10 -1 8 5 10 2 6 -9 -4 -12 -1 -15 15 -12 29 6 32 11 18 32 -10 15
-11 16 -6 1 3 -10 1 -20 -3 -23 -12 -7 -23 24 -14 37 4 7 1 8 -7 3 -8 -5 -11
-4 -6 3 3 6 23 9 44 7 21 -2 40 2 44 8 6 9 8 9 8 0 0 -7 8 -13 18 -13 12 0 14
2 4 8 -8 6 3 9 28 10 23 1 45 4 49 6 10 6 41 -30 34 -38 -4 -3 -2 -6 4 -6 6 0
14 7 17 16 3 8 2 12 -3 9 -5 -3 -12 -1 -16 5 -9 14 65 10 97 -7 15 -7 31 -13
35 -12 4 1 11 0 16 -1 12 -4 26 -7 37 -9 6 0 10 -7 10 -13 0 -7 8 -22 17 -33
16 -20 16 -16 -3 30 -4 11 0 13 18 9 12 -3 41 -7 63 -10 22 -2 45 -6 52 -9 7
-2 15 1 19 7 4 7 9 6 15 -3 8 -12 10 -12 18 0 6 9 11 10 15 2 4 -6 2 -11 -5
-11 -7 0 -9 -3 -5 -7 4 -5 14 1 22 11 8 11 14 14 14 8 0 -7 5 -12 11 -12 5 0
8 4 5 8 -3 5 11 7 30 6 22 -2 32 1 28 7 -4 8 -1 8 13 1 11 -6 25 -7 34 -2 8 5
26 11 40 14 13 3 33 8 44 11 14 4 27 -1 39 -14 23 -25 10 -28 -16 -4 -17 15
-19 15 -36 0 -21 -19 -37 -22 -26 -5 4 7 3 8 -4 4 -6 -4 -9 -13 -5 -22 4 -12
8 -12 22 -2 9 7 19 17 22 22 4 5 17 -1 30 -13 17 -15 25 -18 30 -9 5 7 1 20
-7 29 -24 27 -15 34 12 8 18 -17 23 -19 18 -6 -3 9 -10 17 -15 17 -5 0 -9 4
-9 8 0 5 14 9 30 10 17 0 30 -4 30 -9 0 -5 8 -9 18 -9 14 0 14 2 3 9 -10 7 4
10 43 10 54 0 57 -2 51 -22 l-7 -22 16 22 c12 15 23 20 39 16 12 -3 33 -5 47
-5 21 0 23 -1 9 -12 -14 -10 -14 -13 -2 -25 8 -7 12 -16 8 -19 -3 -4 -11 0
-16 8 -9 13 -10 13 -6 0 2 -8 13 -15 25 -16 19 -1 20 0 6 22 -15 21 -14 23 5
21 13 -1 20 -6 17 -14 -3 -7 -1 -13 5 -13 6 0 9 8 7 17 -2 10 -10 17 -16 15
-7 -1 -12 2 -12 8 0 15 16 12 34 -6 9 -8 13 -20 10 -26 -5 -7 -2 -8 6 -3 10 6
12 4 7 -8 -4 -11 -2 -14 8 -11 12 5 12 10 -2 30 -13 20 -13 24 -1 24 8 0 19
-12 25 -27 11 -27 11 -27 10 -4 -2 21 3 25 28 26 30 0 57 -14 49 -26 -2 -4 3
-9 11 -13 19 -7 15 15 -5 31 -13 11 -12 15 10 32 18 14 28 17 37 9 10 -8 10
-14 2 -24 -7 -9 -8 -14 -1 -14 15 0 22 26 10 38 -7 7 -4 19 10 37 72 91 100
235 61 305 -22 38 -65 70 -94 70 -20 0 -19 6 19 96 14 34 42 117 61 184 20 69
47 137 61 155 13 17 27 53 30 78 4 26 11 47 16 47 21 0 83 -136 94 -208 8 -49
30 -72 70 -72 28 0 45 12 107 73 122 120 186 254 192 402 9 201 -76 350 -256
447 -38 21 -69 36 -69 34 0 -2 -19 2 -43 9 -92 28 -258 0 -339 -56 -14 -11
-29 -19 -33 -19 -6 0 -1 58 11 110 18 86 13 283 -11 405 -10 49 -68 157 -95
176 -52 37 -129 25 -212 -33 -18 -13 -69 -59 -113 -103 -69 -69 -97 -86 -113
-70 -2 2 1 12 6 22 15 28 20 75 11 101 -9 23 -43 30 -54 11 -7 -10 -110 -59
-125 -59 -4 0 -11 15 -14 33 -8 42 -42 97 -60 97 -7 0 -26 -16 -41 -36 -38
-50 -75 -87 -128 -127 l-46 -35 -83 82 c-112 109 -190 150 -266 138z m-115
-2334 c2 6 9 12 14 12 6 0 7 -6 3 -12 -6 -10 -4 -10 7 0 21 19 34 14 15 -7
-15 -16 -33 -20 -56 -11 -3 1 -8 2 -12 1 -4 0 -5 6 -1 15 5 13 8 13 15 2 7
-10 11 -10 15 0z"/>
<path d="M80 190 c0 -6 -5 -8 -12 -4 -7 4 -8 3 -4 -5 4 -6 11 -9 15 -7 10 6
51 -22 51 -35 0 -5 -7 -9 -15 -9 -8 0 -15 -5 -15 -12 0 -6 3 -8 7 -5 3 4 11 2
18 -3 9 -7 11 -1 10 22 -1 18 -7 34 -14 36 -6 2 -18 10 -26 19 -9 9 -15 10
-15 3z"/>
<path d="M1889 187 c-15 -11 -15 -14 -1 -27 14 -13 15 -12 9 3 -8 22 14 32 41
18 14 -7 19 -18 16 -33 -2 -13 -1 -17 3 -8 3 8 13 21 22 28 9 8 10 11 4 7 -7
-3 -23 1 -35 9 -27 19 -38 19 -59 3z"/>
<path d="M146 163 c13 -14 24 -30 24 -34 0 -5 5 -9 11 -9 5 0 8 4 5 9 -4 5 0
12 6 15 7 3 4 4 -6 3 -10 -1 -21 4 -24 12 -3 9 0 11 9 6 11 -6 12 -5 2 5 -7 8
-22 15 -32 17 -18 2 -17 0 5 -24z"/>
<path d="M32 174 c4 -4 3 -16 -3 -28 -9 -19 -9 -19 4 -4 8 10 17 15 20 11 4
-3 7 -2 7 4 0 6 -8 14 -17 17 -10 4 -14 4 -11 0z"/>
<path d="M1914 157 c1 -11 7 -22 14 -23 7 -1 8 0 2 3 -5 2 -10 9 -10 14 0 6 5
7 10 4 6 -3 10 -2 10 3 0 6 -6 12 -14 15 -9 4 -13 -2 -12 -16z"/>
<path d="M1996 164 c-8 -21 -8 -21 12 -29 13 -5 14 -3 5 6 -6 6 -9 18 -6 25 3
8 3 14 0 14 -3 0 -8 -7 -11 -16z"/>
<path d="M2020 160 c0 -5 5 -10 11 -10 5 0 7 5 4 10 -3 6 -8 10 -11 10 -2 0
-4 -4 -4 -10z"/>
<path d="M73 140 c2 -11 6 -22 10 -26 3 -4 4 3 2 16 -3 16 0 20 11 16 9 -3 12
-1 9 4 -11 18 -35 11 -32 -10z"/>
<path d="M1835 150 c-3 -5 -1 -10 4 -10 6 0 11 5 11 10 0 6 -2 10 -4 10 -3 0
-8 -4 -11 -10z"/>
<path d="M596 142 c-2 -4 2 -16 10 -27 8 -10 14 -14 14 -8 0 7 -5 15 -10 18
-6 4 -8 11 -5 16 4 5 4 9 1 9 -3 0 -7 -3 -10 -8z"/>
<path d="M1967 131 c-4 -17 -3 -21 5 -13 5 5 8 16 6 23 -3 8 -7 3 -11 -10z"/>
<path d="M530 115 c-23 -24 -23 -26 -6 -43 18 -16 18 -16 8 4 -11 21 -7 34 10
34 4 0 7 -3 7 -7 -1 -5 -1 -15 0 -23 1 -13 2 -13 11 0 5 9 5 19 -2 27 -16 19
-2 28 16 10 8 -8 12 -17 9 -21 -4 -3 -1 -6 5 -6 17 0 15 15 -6 33 -24 22 -24
22 -52 -8z"/>
<path d="M676 124 c-9 -8 -16 -21 -15 -27 0 -9 2 -8 6 1 2 6 9 12 14 12 6 0 7
-4 4 -10 -3 -5 -2 -10 3 -10 6 0 9 11 8 25 -1 30 0 29 -20 9z"/>
<path d="M1427 126 c-10 -8 -14 -16 -10 -19 5 -3 14 3 21 14 14 22 13 23 -11
5z"/>
<path d="M1468 133 c7 -3 16 -2 19 1 4 3 -2 6 -13 5 -11 0 -14 -3 -6 -6z"/>
<path d="M1516 104 c-20 -20 -40 -34 -43 -30 -4 3 -1 12 5 18 7 7 12 17 12 22
0 6 -5 3 -11 -6 -5 -10 -15 -18 -21 -18 -7 0 -6 5 2 15 7 9 8 15 2 15 -19 0
-20 -28 -1 -46 18 -16 20 -16 41 2 17 15 20 16 16 3 -4 -9 -1 -16 7 -16 10 0
11 5 5 17 -7 13 -4 22 9 34 10 9 21 13 24 9 11 -10 8 -33 -4 -33 -5 0 -7 5 -3
12 4 7 3 8 -4 4 -6 -4 -9 -13 -5 -22 3 -8 8 -12 11 -10 3 3 12 0 20 -7 13 -10
14 -9 7 3 -5 8 -8 22 -7 31 2 9 -4 21 -11 28 -12 9 -22 4 -51 -25z"/>
<path d="M1817 129 c7 -7 15 -10 18 -7 3 3 -2 9 -12 12 -14 6 -15 5 -6 -5z"/>
<path d="M1890 130 c0 -5 5 -10 11 -10 5 0 7 5 4 10 -3 6 -8 10 -11 10 -2 0
-4 -4 -4 -10z"/>
<path d="M150 121 c0 -6 4 -13 10 -16 6 -3 7 1 4 9 -7 18 -14 21 -14 7z"/>
<path d="M209 117 c6 -8 9 -16 6 -18 -2 -3 6 -5 18 -6 12 0 16 1 8 4 -11 5
-11 7 0 15 11 8 10 9 -3 4 -10 -3 -18 -1 -18 4 0 6 -5 10 -11 10 -8 0 -9 -4 0
-13z"/>
<path d="M710 121 c0 -6 6 -11 13 -11 7 -1 3 -8 -9 -18 -11 -10 -19 -23 -16
-31 3 -8 8 -5 16 10 6 12 21 23 33 24 13 1 26 5 30 10 5 4 1 6 -8 2 -9 -3 -26
1 -38 9 -12 9 -21 11 -21 5z"/>
<path d="M1365 120 c3 -5 8 -10 11 -10 2 0 4 5 4 10 0 6 -5 10 -11 10 -5 0 -7
-4 -4 -10z"/>
<path d="M465 96 c9 -13 24 -27 33 -30 15 -5 15 -5 0 8 -20 15 -25 31 -6 20 7
-4 8 -3 4 4 -4 7 -2 12 5 12 7 0 9 3 6 6 -4 4 -13 1 -22 -6 -10 -8 -15 -9 -15
-1 0 6 -5 11 -10 11 -6 0 -3 -11 5 -24z"/>
<path d="M1390 112 c0 -5 14 -21 30 -37 17 -16 30 -25 30 -22 0 4 -13 21 -30
37 -16 16 -30 26 -30 22z"/>
<path d="M1740 103 c6 -13 15 -23 19 -23 13 0 21 29 10 35 -5 4 -9 3 -8 -2 4
-22 -2 -25 -17 -7 -14 18 -15 18 -4 -3z"/>
<path d="M1920 110 c-23 -7 -23 -8 -3 -9 12 -1 25 4 28 9 3 6 5 10 3 9 -2 -1
-14 -5 -28 -9z"/>
<path d="M185 100 c3 -5 8 -10 11 -10 2 0 4 5 4 10 0 6 -5 10 -11 10 -5 0 -7
-4 -4 -10z"/>
<path d="M795 99 c-4 -6 -4 -13 -1 -16 3 -3 1 -11 -4 -18 -7 -8 -5 -12 5 -12
8 0 12 4 9 9 -3 4 -1 8 5 8 5 0 12 -6 14 -12 4 -10 6 -10 6 0 1 7 -6 15 -14
18 -8 4 -15 10 -15 16 0 5 5 6 12 2 7 -4 8 -3 4 4 -9 15 -13 15 -21 1z"/>
<path d="M1845 100 c3 -5 8 -10 11 -10 2 0 4 5 4 10 0 6 -5 10 -11 10 -5 0 -7
-4 -4 -10z"/>
<path d="M630 90 c0 -5 5 -10 10 -10 6 0 10 5 10 10 0 6 -4 10 -10 10 -5 0
-10 -4 -10 -10z"/>
<path d="M867 84 c6 -15 23 -19 23 -5 0 5 -7 11 -14 14 -10 4 -13 1 -9 -9z"/>
<path d="M1370 90 c0 -5 5 -10 11 -10 5 0 7 5 4 10 -3 6 -8 10 -11 10 -2 0 -4
-4 -4 -10z"/>
<path d="M605 80 c-3 -5 -1 -10 4 -10 6 0 11 5 11 10 0 6 -2 10 -4 10 -3 0 -8
-4 -11 -10z"/>
<path d="M765 80 c-3 -5 -1 -10 4 -10 6 0 11 5 11 10 0 6 -2 10 -4 10 -3 0 -8
-4 -11 -10z"/>
<path d="M903 75 c0 -8 5 -11 10 -8 5 3 14 -1 19 -8 7 -11 11 -11 15 -1 2 6
10 9 16 5 17 -11 57 -11 57 0 0 5 -12 6 -26 3 -16 -4 -23 -3 -20 3 4 6 -2 8
-15 6 -12 -2 -29 0 -39 5 -12 6 -17 5 -17 -5z"/>
<path d="M1155 80 c3 -5 8 -10 11 -10 2 0 4 5 4 10 0 6 -5 10 -11 10 -5 0 -7
-4 -4 -10z"/>
<path d="M1186 74 c-4 -9 -4 -19 -1 -22 3 -3 5 0 5 6 0 7 5 12 11 12 5 0 7 -5
3 -12 -4 -7 -3 -8 4 -4 12 7 5 36 -8 36 -4 0 -11 -7 -14 -16z"/>
<path d="M1343 72 c-9 -16 -6 -18 32 -17 24 0 41 4 38 8 -3 5 -14 7 -24 4 -11
-3 -23 1 -27 9 -6 11 -10 10 -19 -4z"/>
<path d="M570 69 c0 -5 5 -7 10 -4 6 3 10 8 10 11 0 2 -4 4 -10 4 -5 0 -10 -5
-10 -11z"/>
<path d="M655 71 c-3 -5 0 -13 6 -17 7 -4 9 -3 5 4 -3 5 0 13 6 15 9 4 10 6 1
6 -6 1 -14 -3 -18 -8z"/>
<path d="M725 71 c-3 -5 0 -13 6 -17 7 -4 9 -3 5 4 -3 5 0 13 6 15 9 4 10 6 1
6 -6 1 -14 -3 -18 -8z"/>
<path d="M1100 70 c-8 -5 -11 -12 -7 -17 5 -4 12 -1 18 7 8 13 10 13 18 0 6
-8 13 -11 18 -7 6 7 -13 27 -27 27 -3 0 -12 -4 -20 -10z"/>
<path d="M1250 65 c-24 -13 -24 -14 -2 -12 12 1 22 5 22 9 0 4 5 8 11 8 5 0 8
-4 5 -8 -3 -5 1 -9 9 -9 20 0 19 13 -1 21 -19 7 -14 8 -44 -9z"/>
</g>
</svg>
